<svg xmlns="http://www.w3.org/2000/svg" width="1086" height="400" viewBox="0 0 1086 400"><g transform="translate(-140 -294)"><rect width="1086" height="400" rx="12" transform="translate(140 294)" fill="#fafafa"/><path d="M12,6a6.007,6.007,0,0,0-6,6V388a6.007,6.007,0,0,0,6,6H1074a6.007,6.007,0,0,0,6-6V12a6.007,6.007,0,0,0-6-6H12m0-6H1074a12,12,0,0,1,12,12V388a12,12,0,0,1-12,12H12A12,12,0,0,1,0,388V12A12,12,0,0,1,12,0Z" transform="translate(140 294)" fill="#eaeaea"/><g transform="translate(586.522 362.022)"><rect width="167.74" height="167.74" transform="translate(12.475 14.74) rotate(-0.091)" fill="#fff"/><path d="M-.5-.5H168.236V168.236H-.5ZM167.244.5H.5V167.244H167.244Z" transform="translate(12.475 14.74) rotate(-0.091)" fill="#e62889"/><g transform="translate(31.881 127.811)"><path d="M30.8,121.9h2.224v14.4H30.8S30.8,121.9,30.8,121.9Z" transform="translate(-30.8 -121.476)" fill="#e62889"/><path d="M39.518,123.806H35.6V121.9H45.66v1.906H41.742v12.5H39.518Z" transform="translate(-30.517 -121.476)" fill="#e62889"/><path d="M53.8,121.9h5.613a4.278,4.278,0,0,1,3.177,1.059,3.592,3.592,0,0,1,1.059,2.753,3.107,3.107,0,0,1-.424,1.694,1.985,1.985,0,0,1-.635.741,9.313,9.313,0,0,1-1.059.635h0a3.157,3.157,0,0,1,1.8,1.271,3.72,3.72,0,0,1,.529,2.118,3.985,3.985,0,0,1-1.165,2.965,3.91,3.91,0,0,1-2.859,1.165H53.8Zm2.224,1.906v4.13H59.2A2.328,2.328,0,0,0,61,127.3a1.844,1.844,0,0,0,.529-1.483A2.53,2.53,0,0,0,61,124.336a2.3,2.3,0,0,0-1.8-.529Zm0,6.142v4.342h3.389a2.328,2.328,0,0,0,1.8-.635,1.982,1.982,0,0,0,.529-1.483,2.3,2.3,0,0,0-.529-1.483,2.328,2.328,0,0,0-1.8-.635Z" transform="translate(-29.444 -121.476)" fill="#e62889"/><path d="M66.3,129.113a26.107,26.107,0,0,1,.106-3.389,4.153,4.153,0,0,1,.529-1.377,5.4,5.4,0,0,1,1.694-1.8,5.248,5.248,0,0,1,5.718,0,6.748,6.748,0,0,1,1.694,1.8,4.153,4.153,0,0,1,.529,1.377,25.194,25.194,0,0,1,.106,3.389,26.108,26.108,0,0,1-.106,3.389,2.691,2.691,0,0,1-.529,1.377,5.01,5.01,0,0,1-1.588,1.8,5.248,5.248,0,0,1-5.718,0,4.569,4.569,0,0,1-1.694-1.8l-.318-.635a6.751,6.751,0,0,1-.212-.741A22.29,22.29,0,0,1,66.3,129.113Zm2.224,0a15.544,15.544,0,0,0,.212,2.859,2.39,2.39,0,0,0,.529,1.165,2.306,2.306,0,0,0,.953.741,2.649,2.649,0,0,0,1.377.318,2.932,2.932,0,0,0,1.377-.318,2.855,2.855,0,0,0,.847-.741,1.7,1.7,0,0,0,.529-1.165,18.949,18.949,0,0,0,.106-2.859,18.174,18.174,0,0,0-.106-2.859,2.092,2.092,0,0,0-.635-1.165,2.854,2.854,0,0,0-.847-.741,3.142,3.142,0,0,0-2.753,0,3.3,3.3,0,0,0-.953.741,2.351,2.351,0,0,0-.529,1.165C68.63,126.677,68.524,127.63,68.524,129.113Z" transform="translate(-28.707 -121.488)" fill="#e62889"/><path d="M79.3,129.113a26.107,26.107,0,0,1,.106-3.389,4.153,4.153,0,0,1,.529-1.377,5.4,5.4,0,0,1,1.694-1.8,5.248,5.248,0,0,1,5.718,0,6.748,6.748,0,0,1,1.694,1.8,4.153,4.153,0,0,1,.529,1.377,25.194,25.194,0,0,1,.106,3.389,26.108,26.108,0,0,1-.106,3.389,2.691,2.691,0,0,1-.529,1.377,5.01,5.01,0,0,1-1.588,1.8,5.248,5.248,0,0,1-5.718,0,4.569,4.569,0,0,1-1.694-1.8l-.318-.635a6.749,6.749,0,0,1-.212-.741A22.291,22.291,0,0,1,79.3,129.113Zm2.224,0a15.545,15.545,0,0,0,.212,2.859,2.39,2.39,0,0,0,.529,1.165,2.306,2.306,0,0,0,.953.741,2.65,2.65,0,0,0,1.377.318,2.932,2.932,0,0,0,1.377-.318,2.855,2.855,0,0,0,.847-.741,1.7,1.7,0,0,0,.529-1.165,18.949,18.949,0,0,0,.106-2.859,18.174,18.174,0,0,0-.106-2.859,2.092,2.092,0,0,0-.635-1.165,2.855,2.855,0,0,0-.847-.741,3.142,3.142,0,0,0-2.753,0,3.3,3.3,0,0,0-.953.741,2.35,2.35,0,0,0-.529,1.165A17.411,17.411,0,0,0,81.524,129.113Z" transform="translate(-27.94 -121.488)" fill="#e62889"/><path d="M95.318,123.806H91.4V121.9h10.06v1.906H97.542v12.5H95.318Z" transform="translate(-27.227 -121.476)" fill="#e62889"/><path d="M113.372,132.2a5.556,5.556,0,0,1-1.8,3.071,5.088,5.088,0,0,1-3.283,1.059,4.819,4.819,0,0,1-2.859-.847,4.569,4.569,0,0,1-1.694-1.8l-.318-.635a6.744,6.744,0,0,1-.212-.741,25.193,25.193,0,0,1-.106-3.389,26.107,26.107,0,0,1,.106-3.389,4.153,4.153,0,0,1,.529-1.377,5.4,5.4,0,0,1,1.694-1.8,4.819,4.819,0,0,1,2.859-.847,4.636,4.636,0,0,1,3.389,1.271,5.531,5.531,0,0,1,1.694,3.071h-2.33a4.442,4.442,0,0,0-.953-1.483,2.672,2.672,0,0,0-1.8-.635,2.931,2.931,0,0,0-1.377.318,3.3,3.3,0,0,0-.953.741,2.351,2.351,0,0,0-.529,1.165,18.95,18.95,0,0,0-.106,2.859,15.545,15.545,0,0,0,.212,2.859,2.39,2.39,0,0,0,.529,1.165,2.306,2.306,0,0,0,.953.741,2.649,2.649,0,0,0,1.377.318,2.878,2.878,0,0,0,2.753-2.012Z" transform="translate(-26.537 -121.5)" fill="#e62889"/><path d="M123.1,133.025h-5.507L116.53,136.2H114.2l5.189-14.4h1.8l5.295,14.4h-2.33Zm-.635-2.012-2.118-6.248h0l-2.118,6.354Z" transform="translate(-25.882 -121.482)" fill="#e62889"/><path d="M128.6,121.8h2.012l4.13,9.425,4.024-9.425h2.118v14.4H138.66v-9h0l-2.965,6.883h-1.8l-3.071-6.883h0v9H128.6Z" transform="translate(-25.033 -121.482)" fill="#e62889"/><path d="M144.406,121.7h5.189a9.109,9.109,0,0,1,1.694.106,3.892,3.892,0,0,1,1.588.847,2.842,2.842,0,0,1,1.059,1.377,4.032,4.032,0,0,1,.424,2.012,4.772,4.772,0,0,1-1.165,2.965,4.04,4.04,0,0,1-3.389,1.377h-3.283V136H144.3Zm2.224,6.777h3.283a2.372,2.372,0,0,0,1.8-.741,2.08,2.08,0,0,0,.529-1.588,3.269,3.269,0,0,0-.212-1.165,2.474,2.474,0,0,0-.741-.741,2.552,2.552,0,0,0-1.588-.424h-3.177Z" transform="translate(-24.108 -121.488)" fill="#e62889"/></g><g transform="translate(38.234 148.037)"><path d="M44.636,149.389l-.741,7.2a13.308,13.308,0,0,1-.741,3.706,6.536,6.536,0,0,1-1.588,2.33,5.028,5.028,0,0,1-3.706,1.483A4.661,4.661,0,0,1,36.8,163.9l1.165-1.059a3.365,3.365,0,0,0,1.377.212c1.8,0,2.753-1.377,3.071-4.024l.212-2.224.741-7.519H41.777l1.059-1.059h.741V147.7a9.216,9.216,0,0,1,1.906-5.189,5.457,5.457,0,0,1,4.13-1.906,3.973,3.973,0,0,1,1.059.106L49.4,141.977a2.686,2.686,0,0,0-1.271-.212,2.312,2.312,0,0,0-2.224,1.059,11.73,11.73,0,0,0-.953,4.13l-.106,1.271h3.6l-1.059,1.059Z" transform="translate(-36.8 -140.6)" fill="#e62889"/><path d="M51.712,156.489c-1.377,0-2.012-.847-2.012-2.647a6.326,6.326,0,0,1,1.588-4.13,4.2,4.2,0,0,1,3.283-2.012c1.377,0,2.012.847,2.012,2.647a6.326,6.326,0,0,1-1.588,4.13C53.936,155.748,52.877,156.489,51.712,156.489Zm1.059-1.059a2.052,2.052,0,0,0,1.694-1.165,5.7,5.7,0,0,0,.741-2.859c0-1.906-.635-2.753-1.694-2.753a2.052,2.052,0,0,0-1.694,1.165,4.785,4.785,0,0,0-.635,2.859C51.077,154.477,51.606,155.43,52.771,155.43Z" transform="translate(-36.039 -140.181)" fill="#e62889"/><path d="M62.765,151.412c1.271-2.542,2.647-3.812,3.918-3.812a3.093,3.093,0,0,1,.953.212l-1.271,1.377a1.531,1.531,0,0,0-.741-.212c-.635,0-1.271.529-2.012,1.483a7.25,7.25,0,0,0-1.165,3.177l-.212,2.224-1.377.424v-.318l.106-.529.106-.529.424-4.236.106-.424c0-.318.106-.635.106-.847,0-.318-.106-.529-.318-.529-.529,0-.953.529-1.377,1.483-.106-.106-.212-.212-.212-.318a2.74,2.74,0,0,1,.953-1.483,2.6,2.6,0,0,1,1.588-.953c.529,0,.741.318.741.953v.635l-.106.635-.106.741Z" transform="translate(-35.444 -140.187)" fill="#e62889"/><path d="M78.135,156.178l1.165-1.271.318.106c.318.106.741.106,1.059.212a1.808,1.808,0,0,0,.953-1.059,8.442,8.442,0,0,0,.424-2.436l.741-6.777a5.781,5.781,0,0,0-2.965.953,2.534,2.534,0,0,0-1.059,2.224,2.431,2.431,0,0,0,.424,1.483l-1.483,1.271a6.2,6.2,0,0,1-.212-1.377,4.552,4.552,0,0,1,2.012-3.918A8.506,8.506,0,0,1,84.807,144c2.753,0,4.13.741,4.13,2.33,0,1.377-.953,2.436-2.859,3.283q2.859.953,2.859,3.177a3.089,3.089,0,0,1-1.694,2.753,9.777,9.777,0,0,1-4.659,1.059C81.206,156.5,79.83,156.39,78.135,156.178Zm5.507-5.824-.106,1.165-.106.741a5.973,5.973,0,0,1-.529,1.906,4.3,4.3,0,0,1-1.588,1.165,19.5,19.5,0,0,0,3.495.318c1.906,0,2.753-.741,2.753-2.224a2.48,2.48,0,0,0-.741-1.8,3.613,3.613,0,0,0-1.906-1.165H83.854Zm.529-5.507-.529,4.765H84.6a3.972,3.972,0,0,0,1.059-.106,3.112,3.112,0,0,0,1.906-2.647C87.56,145.588,86.4,144.847,84.171,144.847Z" transform="translate(-34.4 -140.399)" fill="#e62889"/><path d="M98.007,153.318c.106.106.212.212.212.318a2.179,2.179,0,0,1-.529.953c-1.059,1.165-2.012,1.8-3.071,1.8a1.717,1.717,0,0,1-1.483-.741,2.672,2.672,0,0,1-.635-1.8,6.763,6.763,0,0,1,1.588-4.13c1.059-1.377,2.012-2.118,3.071-2.118.741,0,1.059.424,1.059,1.165a3.661,3.661,0,0,1-1.271,2.542,8.126,8.126,0,0,1-3.071,1.8c.106,1.483.741,2.118,1.694,2.118A2.852,2.852,0,0,0,98.007,153.318Zm-4.13-1.377a.8.8,0,0,0,.424.106,2.957,2.957,0,0,0,1.906-.635,2.011,2.011,0,0,0,.847-1.588c0-.741-.318-1.059-1.059-1.059-.529,0-.953.318-1.377.953A4.615,4.615,0,0,0,93.877,151.942Z" transform="translate(-33.516 -140.187)" fill="#e62889"/><path d="M107.213,152.577a11.521,11.521,0,0,1-2.224,2.753,3.312,3.312,0,0,1-2.118,1.059c-.847,0-1.271-.635-1.271-2.012a7.211,7.211,0,0,1,1.8-4.765,5.405,5.405,0,0,1,4.236-2.012,6.409,6.409,0,0,1,1.588.212v.212l-.106.424a1.853,1.853,0,0,0-.106.529l-.529,3.918-.106.529a5.7,5.7,0,0,0-.106,1.165c0,.212.106.424.212.424.529,0,1.059-.53,1.483-1.694.212.106.212.212.212.318a2.706,2.706,0,0,1-.741,1.271q-1.112,1.271-1.906,1.271c-.424,0-.635-.318-.635-.847a2.067,2.067,0,0,1,.106-.741l.106-.741.106-.741Zm.529-3.495a3.107,3.107,0,0,0-1.694-.424c-.847,0-1.483.529-2.118,1.483a8.438,8.438,0,0,0-.847,3.812c0,.741.212,1.165.741,1.165s1.165-.424,1.906-1.271a6.434,6.434,0,0,0,1.8-3.812Z" transform="translate(-32.979 -140.187)" fill="#e62889"/><path d="M119.783,152.595a11.3,11.3,0,0,1-2.33,2.647,3.557,3.557,0,0,1-2.118,1.059c-.635,0-.847-.424-.847-1.165a9.316,9.316,0,0,1,.106-1.483l.318-2.965v-1.483c0-.318-.106-.529-.318-.529-.424,0-.953.529-1.483,1.483-.106-.106-.212-.212-.212-.318a2.74,2.74,0,0,1,.953-1.483,2.6,2.6,0,0,1,1.588-.953c.529,0,.741.318.741,1.059v.529l-.106.741-.106.741-.318,2.542c0,.424-.106.847-.106,1.271s.106.635.424.635c.635,0,1.483-.529,2.224-1.694a6.5,6.5,0,0,0,1.483-3.283l.318-2.118,1.483-.529c-.212.741-.318,1.271-.424,1.8l-.529,3.706a.794.794,0,0,1-.106.529l-.106.529a3.744,3.744,0,0,1-.106.635c0,.212.106.424.212.424.529,0,1.059-.529,1.588-1.694.212.106.212.212.212.318a2.706,2.706,0,0,1-.741,1.271q-1.112,1.271-1.906,1.271c-.424,0-.635-.318-.635-.847a2.068,2.068,0,0,1,.106-.741l.106-.741a2.794,2.794,0,0,0,.106-.741Z" transform="translate(-32.313 -140.205)" fill="#e62889"/><path d="M128.577,148.865l-.424,3.918a10.472,10.472,0,0,0-.106,1.588c0,.635.212,1.059.741,1.059s.953-.424,1.483-1.271a.389.389,0,0,1,.106.318c0,.318-.318.741-.847,1.165a3.185,3.185,0,0,1-1.483.741q-1.271,0-1.271-1.588a14.37,14.37,0,0,1,.106-1.906l.424-3.918H125.4l1.059-1.059h.953l.212-1.588,1.271-.424-.212,2.118H132.5l-1.059,1.059Z" transform="translate(-31.576 -140.287)" fill="#e62889"/><path d="M141.248,152.583a20.631,20.631,0,0,1-1.906,2.753c-.635.741-1.165,1.059-1.588,1.059-.529,0-.847-.635-.953-1.8l-.106-1.271-.106-2.542v-.741c-.106-.953-.212-1.483-.529-1.483-.424,0-.953.424-1.377,1.271-.106-.106-.212-.212-.212-.318,0-.318.318-.741.847-1.271a2.2,2.2,0,0,1,1.377-.741.943.943,0,0,1,.847.529,11.233,11.233,0,0,1,.318,1.906l.212,3.177c.106,1.165.212,1.8.529,1.8.529,0,1.059-.529,1.8-1.694a8.727,8.727,0,0,0,1.377-3.283l.318-1.8,1.588-.529a13.629,13.629,0,0,0-.635,2.33l-1.165,6.036a9.859,9.859,0,0,1-2.224,5.189,6.62,6.62,0,0,1-5.083,2.542,3.656,3.656,0,0,1-1.377-.318l1.059-1.165a4.989,4.989,0,0,0,1.8.424,3.361,3.361,0,0,0,2.753-1.165,11.607,11.607,0,0,0,1.588-4.448Z" transform="translate(-31.116 -140.193)" fill="#e62889"/></g><path d="M92.438,106.514a98.262,98.262,0,0,0,11.225,8.578c-2.224-2.012-4.236-4.024-6.354-6.036a63.887,63.887,0,0,1,8.578,4.13c-2.647-2.859-5.295-5.613-7.942-8.472.741.741,1.8.953,2.753,1.588a8.944,8.944,0,0,1,1.906,1.588,25.193,25.193,0,0,0,5.4,3.918,22.34,22.34,0,0,0,2.012-2.436c.106-.212.212-.318.212-.529a.582.582,0,0,0-.318-.529,11.2,11.2,0,0,0-2.753-1.8c-2.965-1.588-5.93-3.177-8.789-4.765.529-.424,1.059-.741,1.588-1.165,3.495-2.542,7.307-4.871,10.378-7.942a.9.9,0,0,0,.318-.529c.106-.424-.529-.741-.953-.635a2.421,2.421,0,0,0-1.059.741c-2.647,2.753-6.248,4.554-9.742,6.142,1.483-2.012,3.918-2.965,5.93-4.448a25.193,25.193,0,0,0,4.342-4.554,50.3,50.3,0,0,1-6.248,3.283,11.841,11.841,0,0,0,3.6-4.342c-4.871,2.965-9.319,6.566-14.19,9.637l-.106.106-.106-.106C87.355,94.76,82.8,91.265,77.93,88.3a12.977,12.977,0,0,0,3.6,4.342,38.778,38.778,0,0,1-6.248-3.283,29.462,29.462,0,0,0,4.342,4.554c2.012,1.483,4.448,2.436,5.93,4.448-3.495-1.694-7.1-3.389-9.742-6.142a1.942,1.942,0,0,0-1.059-.741.716.716,0,0,0-.953.635.9.9,0,0,0,.318.529c3.071,3.177,6.883,5.4,10.378,7.942a15.154,15.154,0,0,1,1.588,1.165c-2.859,1.588-5.824,3.177-8.789,4.765a11.2,11.2,0,0,0-2.753,1.8.582.582,0,0,0-.318.529.809.809,0,0,0,.212.529,22.342,22.342,0,0,0,2.012,2.436,38.969,38.969,0,0,0,5.4-3.918,6.935,6.935,0,0,1,1.906-1.588c.953-.529,2.012-.741,2.753-1.588-2.647,2.859-5.295,5.613-7.942,8.472a63.887,63.887,0,0,1,8.578-4.13c-2.012,2.012-4.13,4.13-6.354,6.036A68.968,68.968,0,0,0,92.438,106.514Z" transform="translate(3.616 4.353)" fill="none"/><path d="M109.907,52.49c-.424,6.142-3.812,6.46-4.871,6.777C104.506,49.313,94.976,41.583,93.6,36.5c-.953,3.495-12.5,14.614-12.284,22.132-1.271,0-3.918-.106-5.295-6.777-12.5,15.037-.741,26.9-.741,26.9s-3.389-9.107,3.389-15.567c1.377,5.295,3.177,6.142,3.812,6.354.212-8.789,10.484-16.52,10.484-19.167-.106,2.542,9.848,9.954,9.954,19.167.741.106,2.542-1.694,2.859-5.718,7.519,4.448,5.4,15.884,5.4,15.884S120.391,70.7,109.907,52.49Z" transform="translate(3.408 1.299)" fill="#e62889"/><path d="M77.551,67.313c-5.295,16.732,14.19,25.945,14.19,25.945s6.46-4.13,10.7-6.777a14.249,14.249,0,0,0,4.024-18.744c-.529,5.4-6.248,8.26-6.248,8.26s2.118-7.413-7.413-19.7c-9.531,9.425-7.942,19.061-7.942,19.061S80.516,74.408,77.551,67.313Z" transform="translate(3.783 2.466)" fill="#e62889"/><path d="M49.224,74.112a44.688,44.688,0,1,1,74.233,33.463h.635a45.112,45.112,0,1,0-60.361,0h.635A44.9,44.9,0,0,1,49.224,74.112Z" transform="translate(2.142 0.856)" fill="#e62889"/><rect width="18.638" height="2.012" transform="translate(32.834 108.643)" fill="#e62889"/><path d="M61.249,40.814A46.877,46.877,0,1,1,126.9,107.74h1.588a48.077,48.077,0,1,0-68.833,0h1.588l-.635-.635A46.947,46.947,0,0,1,61.249,40.814Z" transform="translate(1.977 0.691)" fill="#e62889"/><rect width="18.638" height="2.012" transform="translate(140.636 108.643)" fill="#e62889"/><path d="M106.524,118.4c3.918,0,5.613-2.118,6.354-4.236a5.727,5.727,0,0,0-2.224-6.46l-8.154-5.613c3.389-2.33,6.248-4.342,8.154-5.613a5.715,5.715,0,0,0,2.436-5.295V90.97a5.6,5.6,0,0,0-8.789-3.812L92.546,95.206,80.792,87.157A5.581,5.581,0,0,0,72,90.97v.212a5.6,5.6,0,0,0,2.436,5.295c1.906,1.377,4.871,3.389,8.154,5.613L74.438,107.6a5.829,5.829,0,0,0-2.224,6.46c.741,2.118,2.436,4.236,6.354,4.236.318,0,6.777-4.342,13.978-9.319C99.853,114.055,106.207,118.4,106.524,118.4ZM79.1,113.314c2.647-2.859,5.295-5.613,7.942-8.472-.741.741-1.8.953-2.753,1.588a8.945,8.945,0,0,0-1.906,1.588,25.192,25.192,0,0,1-5.4,3.918,22.34,22.34,0,0,1-2.012-2.436c-.106-.212-.212-.318-.212-.529a.582.582,0,0,1,.318-.529,11.2,11.2,0,0,1,2.753-1.8c2.965-1.588,5.93-3.177,8.789-4.765-.529-.424-1.059-.741-1.588-1.165-3.495-2.542-7.307-4.871-10.378-7.942a.9.9,0,0,1-.318-.529c-.106-.424.424-.741.953-.635a2.421,2.421,0,0,1,1.059.741c2.647,2.753,6.248,4.554,9.742,6.142-1.483-2.012-3.918-2.965-5.93-4.448a25.193,25.193,0,0,1-4.342-4.554,50.3,50.3,0,0,0,6.248,3.283,11.841,11.841,0,0,1-3.6-4.342c4.871,2.965,9.319,6.566,14.19,9.637l.106.106.106-.106c4.765-3.177,9.319-6.671,14.19-9.637a12.977,12.977,0,0,1-3.6,4.342,38.777,38.777,0,0,0,6.248-3.283,29.462,29.462,0,0,1-4.342,4.554c-2.012,1.483-4.448,2.436-5.93,4.448,3.495-1.694,7.1-3.389,9.742-6.142a1.942,1.942,0,0,1,1.059-.741.716.716,0,0,1,.953.635.9.9,0,0,1-.318.529c-3.071,3.177-6.883,5.4-10.378,7.942a15.157,15.157,0,0,0-1.588,1.165c2.859,1.588,5.824,3.177,8.789,4.765a11.2,11.2,0,0,1,2.753,1.8.582.582,0,0,1,.318.529.809.809,0,0,1-.212.529,22.34,22.34,0,0,1-2.012,2.436,38.968,38.968,0,0,1-5.4-3.918,6.936,6.936,0,0,0-1.906-1.588c-.953-.529-2.012-.741-2.753-1.588,2.647,2.859,5.295,5.613,7.942,8.472a63.888,63.888,0,0,0-8.578-4.13c2.012,2.012,4.13,4.13,6.354,6.036a87.44,87.44,0,0,1-11.225-8.578,98.261,98.261,0,0,1-11.225,8.578c2.224-2.012,4.236-4.024,6.354-6.036A50.376,50.376,0,0,0,79.1,113.314Z" transform="translate(3.508 4.225)" fill="#e62889"/></g><path d="M-227.32,0h5.92V-29.6h-5.92Zm19.08,0h5.92V-24.68h8.4V-29.6h-22.64v4.92h8.32Zm28.2,0h10.56C-162.96,0-158-2.76-158-8.72a6.731,6.731,0,0,0-5.56-7v-.2c2.52-.88,4.04-3.68,4.04-6.4,0-5.52-4.64-7.28-10.72-7.28h-9.8Zm5.92-17.56v-7.52h3.52c3.56,0,5.32,1.04,5.32,3.64,0,2.36-1.64,3.88-5.4,3.88Zm0,13v-8.6H-170c4.08,0,6.24,1.2,6.24,4.08,0,3.08-2.2,4.52-6.24,4.52Zm30.2,5.12c5.6,0,10.76-4.32,10.76-11.72,0-7.48-5.16-11.8-10.76-11.8s-10.76,4.32-10.76,11.8C-154.68-3.76-149.52.56-143.92.56Zm0-4.8c-3.04,0-4.76-2.72-4.76-6.92,0-4.24,1.72-7,4.76-7s4.76,2.76,4.76,7C-139.16-6.96-140.88-4.24-143.92-4.24Zm25.04,4.8c5.6,0,10.76-4.32,10.76-11.72,0-7.48-5.16-11.8-10.76-11.8s-10.76,4.32-10.76,11.8C-129.64-3.76-124.48.56-118.88.56Zm0-4.8c-3.04,0-4.76-2.72-4.76-6.92,0-4.24,1.72-7,4.76-7s4.76,2.76,4.76,7C-114.12-6.96-115.84-4.24-118.88-4.24ZM-96.12.56A14.476,14.476,0,0,0-91.4-.28l-.96-4.28a6.545,6.545,0,0,1-2.2.48c-2,0-3.04-1.2-3.04-3.76v-9.92h5.52V-22.4H-97.6v-6h-4.92l-.68,6-3.44.28v4.36h3.16v9.92C-103.48-2.8-101.44.56-96.12.56Zm17.36,0a11.113,11.113,0,0,0,7.32-2.72l-2.32-3.88a6.956,6.956,0,0,1-4.36,1.8c-3.24,0-5.56-2.72-5.56-6.92,0-4.24,2.32-7,5.72-7a5.114,5.114,0,0,1,3.44,1.48l2.8-3.8a9.793,9.793,0,0,0-6.52-2.48c-6.08,0-11.44,4.32-11.44,11.8C-89.68-3.76-84.96.56-78.76.56Zm16.6,0A10.533,10.533,0,0,0-55.4-2.4h.12l.44,2.4h4.8V-13.08c0-6.48-2.92-9.88-8.6-9.88A17.9,17.9,0,0,0-68-20l2.12,3.88a12.656,12.656,0,0,1,6.16-2.12c2.76,0,3.72,1.68,3.8,3.88-9,.96-12.88,3.48-12.88,8.28A6.363,6.363,0,0,0-62.16.56Zm1.92-4.6c-1.72,0-2.96-.76-2.96-2.52,0-2,1.84-3.48,7.28-4.2v4.52C-57.32-4.84-58.56-4.04-60.24-4.04ZM-44.04,0h5.84V-15.4q2.4-2.52,4.32-2.52c2.12,0,3.12,1.24,3.12,4.68V0h5.88V-15.4q2.4-2.52,4.32-2.52c2.12,0,3.12,1.24,3.12,4.68V0h5.88V-13.96c0-5.64-2.2-9-6.96-9-2.92,0-5.08,1.76-7.12,3.92a6.1,6.1,0,0,0-6.16-3.92c-2.92,0-5,1.6-6.88,3.56h-.16l-.4-3h-4.8ZM-5.48,8.6H.36V1.8L.2-1.88A8.326,8.326,0,0,0,5.76.56c4.92,0,9.52-4.44,9.52-12.12,0-6.88-3.28-11.4-8.8-11.4a10.634,10.634,0,0,0-6.6,2.88H-.28l-.4-2.32h-4.8ZM4.44-4.28A6.268,6.268,0,0,1,.36-5.96V-15.8c1.56-1.56,2.92-2.32,4.44-2.32,3.08,0,4.44,2.36,4.44,6.64C9.24-6.6,7.16-4.28,4.44-4.28ZM42.4-31.68a11.744,11.744,0,0,0-4.24-.8c-5.64,0-7.8,3.6-7.8,8.28v1.84l-3,.24v4.36h3V0h5.88V-17.76h4.2V-22.4h-4.2v-1.92c0-2.48.96-3.52,2.72-3.52a7.3,7.3,0,0,1,2.36.48ZM53.12.56c5.6,0,10.76-4.32,10.76-11.72,0-7.48-5.16-11.8-10.76-11.8s-10.76,4.32-10.76,11.8C42.36-3.76,47.52.56,53.12.56Zm0-4.8c-3.04,0-4.76-2.72-4.76-6.92,0-4.24,1.72-7,4.76-7s4.76,2.76,4.76,7C57.88-6.96,56.16-4.24,53.12-4.24ZM68.8,0h5.84V-13.36c1.28-3.24,3.4-4.4,5.16-4.4a7.059,7.059,0,0,1,2.32.36l1.04-5.08a6.337,6.337,0,0,0-2.64-.48c-2.32,0-4.72,1.6-6.36,4.52H74l-.4-3.96H68.8Zm27,0h10.56c6.52,0,11.48-2.76,11.48-8.72a6.731,6.731,0,0,0-5.56-7v-.2c2.52-.88,4.04-3.68,4.04-6.4,0-5.52-4.64-7.28-10.72-7.28H95.8Zm5.92-17.56v-7.52h3.52c3.56,0,5.32,1.04,5.32,3.64,0,2.36-1.64,3.88-5.4,3.88Zm0,13v-8.6h4.12c4.08,0,6.24,1.2,6.24,4.08,0,3.08-2.2,4.52-6.24,4.52ZM132.28.56a14.13,14.13,0,0,0,7.84-2.48l-2-3.6a9.233,9.233,0,0,1-5.04,1.56c-3.32,0-5.72-1.92-6.2-5.6h13.8a10.927,10.927,0,0,0,.28-2.68c0-6.2-3.2-10.72-9.36-10.72-5.36,0-10.44,4.52-10.44,11.8C121.16-3.8,126.04.56,132.28.56Zm-5.48-14c.44-3.28,2.52-4.96,4.88-4.96,2.88,0,4.24,1.92,4.24,4.96Zm23.96,14a10.533,10.533,0,0,0,6.76-2.96h.12l.44,2.4h4.8V-13.08c0-6.48-2.92-9.88-8.6-9.88A17.9,17.9,0,0,0,144.92-20l2.12,3.88a12.656,12.656,0,0,1,6.16-2.12c2.76,0,3.72,1.68,3.8,3.88-9,.96-12.88,3.48-12.88,8.28A6.363,6.363,0,0,0,150.76.56Zm1.92-4.6c-1.72,0-2.96-.76-2.96-2.52,0-2,1.84-3.48,7.28-4.2v4.52C155.6-4.84,154.36-4.04,152.68-4.04ZM175.52.56c3.08,0,5.24-1.48,7.16-3.76h.16l.44,3.2h4.8V-22.4H182.2V-7.28c-1.52,2-2.72,2.8-4.56,2.8-2.16,0-3.12-1.2-3.12-4.68V-22.4h-5.88v14C168.64-2.8,170.72.56,175.52.56Zm27.04,0a14.476,14.476,0,0,0,4.72-.84l-.96-4.28a6.545,6.545,0,0,1-2.2.48c-2,0-3.04-1.2-3.04-3.76v-9.92h5.52V-22.4h-5.52v-6h-4.92l-.68,6-3.44.28v4.36h3.16v9.92C195.2-2.8,197.24.56,202.56.56ZM213.12,9c5,0,7.4-3.04,9.36-8.32l7.96-23.08H224.8L221.72-12c-.52,2.08-1.08,4.24-1.6,6.32h-.2c-.64-2.16-1.2-4.32-1.88-6.32l-3.56-10.4h-5.92l8.72,22-.4,1.32c-.64,1.96-1.92,3.4-4.2,3.4a6.024,6.024,0,0,1-1.56-.28l-1.08,4.52A9.485,9.485,0,0,0,213.12,9Z" transform="translate(683 598.503)" fill="#1c1d22"/></g></svg>